<svg width="59" height="24" viewBox="0 0 59 24" fill="none" xmlns="http://www.w3.org/2000/svg">
<path fill-rule="evenodd" clip-rule="evenodd" d="M28.9166 3.46823C27.3011 2.25499 24.6268 1.52624 21.6459 3.35477C19.5846 4.61914 18.4248 7.26022 18.8318 10.2947C19.2407 13.3439 21.2143 16.7925 25.3939 19.8861L25.498 19.9632C26.9493 21.0381 27.9105 21.7499 29.5006 21.7499C29.9148 21.7499 30.2506 21.4141 30.2506 20.9999C30.2506 20.5857 29.9148 20.2499 29.5006 20.2499C28.446 20.2499 27.8685 19.8515 26.2863 18.6804C22.3481 15.7655 20.661 12.649 20.3185 10.0953C19.974 7.52708 20.972 5.52781 22.4302 4.63339C24.8125 3.17207 26.8193 3.7691 28.0159 4.66766L28.0367 4.68334C28.3071 4.88642 28.5394 5.06085 28.7252 5.18249C28.8218 5.24571 28.9287 5.31008 29.0396 5.36023C29.145 5.40782 29.3068 5.46736 29.5006 5.46736C29.6944 5.46736 29.8562 5.40782 29.9615 5.36023C30.0725 5.31008 30.1794 5.24571 30.276 5.18249C30.4618 5.06086 30.694 4.88644 30.9644 4.68337L30.9853 4.66766C32.1818 3.7691 34.1887 3.17207 36.571 4.63339C37.9956 5.50723 38.9801 7.43388 38.7045 9.91721C38.6589 10.3289 38.9556 10.6997 39.3672 10.7454C39.7789 10.791 40.1497 10.4943 40.1954 10.0826C40.5221 7.13843 39.3681 4.58939 37.3553 3.35477C34.3743 1.52624 31.7001 2.25499 30.0846 3.46823C29.8188 3.66782 29.6364 3.80442 29.5006 3.89666C29.3648 3.80442 29.1824 3.66782 28.9166 3.46823ZM29.3438 3.99331C29.3406 3.99476 29.3412 3.99429 29.3452 3.99267L29.3438 3.99331ZM29.6559 3.99267C29.66 3.99428 29.6605 3.99476 29.6573 3.99331L29.6559 3.99267Z" fill="#95684B"/>
<path d="M39.4412 14.4766C39.8426 14.3745 40.0853 13.9663 39.9831 13.5649C39.881 13.1634 39.4728 12.9208 39.0714 13.023C38.3958 13.1949 37.7281 13.5964 37.1152 14.0732C36.4936 14.5568 35.8805 15.1557 35.3129 15.7796C34.5459 16.6227 33.8403 17.5352 33.2847 18.3206C33.1251 18.1311 32.9545 17.9654 32.7852 17.8229C32.3264 17.4365 31.8382 17.1862 31.4964 17.0676C31.105 16.9319 30.6778 17.1392 30.5421 17.5306C30.4064 17.9219 30.6136 18.3492 31.005 18.4849C31.177 18.5445 31.5035 18.7045 31.819 18.9702C32.1317 19.2335 32.3937 19.5665 32.5156 19.9626C32.6017 20.2425 32.8428 20.4466 33.133 20.4855C33.4232 20.5243 33.7095 20.3907 33.8661 20.1433C34.4087 19.2864 35.3573 17.9598 36.4224 16.7891C36.9547 16.204 37.5044 15.6709 38.0363 15.2571C38.5769 14.8365 39.0536 14.5753 39.4412 14.4766Z" fill="#95684B"/>
</svg>
