<svg width="101" height="90" viewBox="0 0 101 90" fill="none" xmlns="http://www.w3.org/2000/svg">
<path d="M24.0909 21.568C27.9418 17.8349 35.1452 15.7902 41.6087 16.7658C43.49 17.0126 45.2564 17.8102 46.6858 19.0582C45.5502 17.0738 43.8346 16.2734 41.953 15.9593C34.6257 14.6455 26.8514 17.6688 23.1123 22.2355C29.3824 20.7145 35.8895 20.4344 42.2671 21.411C37.2866 19.3934 31.2067 19.5475 24.0999 21.568" fill="#96694C"/>
<path d="M27.1602 20.0459C30.6698 19.0402 39.8454 17.5119 47.2361 20.1456C40.6639 16.8233 33.6297 17.2461 27.1602 20.0459Z" fill="#5B595D"/>
<path d="M62.8933 29.5719C62.8939 29.5659 62.8939 29.5598 62.8933 29.5538C60.5375 25.1411 56.3574 22.894 52.3223 23.0088C56.5054 23.341 60.018 26.0895 62.8933 29.5749" fill="#5B595D"/>
<path d="M49.7094 17.0104V16.9893C49.7457 9.09722 45.629 2.86331 39.9297 6.10352e-05C45.4931 3.5912 48.308 10.0275 49.7094 17.0195" fill="#96694C"/>
<path d="M49.9964 3.09583C52.0683 7.66858 51.431 12.5071 49.6943 16.9892C52.6271 12.7064 52.4126 7.34842 49.9964 3.09583Z" fill="#96694C"/>
<path d="M54.3723 11.9422C54.5703 10.2199 54.2701 8.47692 53.5072 6.92011C52.7443 5.3633 51.5508 4.05804 50.0684 3.1592C52.7866 5.24019 53.9676 8.49608 54.3723 11.9422Z" fill="#96694C"/>
<path d="M56.8251 42.2179C56.3479 33.2476 53.4424 26.618 49.7969 24.0296C53.4031 27.4637 55.5355 34.4376 56.8251 42.2179Z" fill="#96694C"/>
<path d="M56.0127 26.6089C58.0967 30.3238 57.9094 36.1863 56.801 42.3809C58.9545 35.5701 58.3655 29.6956 56.0127 26.6089Z" fill="#96694C"/>
<path d="M42.3912 25.7935C39.4989 27.469 37.2736 30.0912 36.0908 33.2174V33.2446C38.4225 28.4967 43.1493 25.5972 48.4257 23.7608C46.296 24.0269 44.2416 24.7193 42.3851 25.7965" fill="#96694C"/>
<path d="M29.4668 40.916C30.3971 34.4918 34.0486 29.5808 38.7029 25.7632C39.1823 25.2755 39.7164 24.8448 40.2946 24.4795C33.6227 27.2673 29.8323 33.8666 29.4668 40.916Z" fill="#96694C"/>
<path d="M40.2678 24.4795C39.7271 24.8691 39.1956 25.2678 38.6761 25.6876C37.7173 26.6732 36.9879 27.8583 36.5399 29.1583C36.092 30.4583 35.9365 31.8412 36.0847 33.2082C36.0847 33.2082 36.0847 33.2082 36.0847 33.1871C36.0847 29.7167 37.8727 26.8444 40.2587 24.4825" fill="#96694C"/>
<path d="M74.9109 9.19394C64.8412 7.46029 55.4692 12.0995 52.0684 18.4904C57.2784 12.8213 65.8198 10.2299 74.9109 9.19394Z" fill="#5B595D"/>
<path d="M45.5929 15.0954C42.3823 7.6564 34.907 3.92029 28.8271 4.93209C35.197 5.4546 40.8268 9.70115 45.5929 15.0954Z" fill="#5B595D"/>
<path d="M53.1641 21.0636C59.6879 19.9612 66.1212 22.8124 71.8628 27.0317C66.5742 21.1603 59.3043 19.3239 53.1641 21.0636Z" fill="#96694C"/>
<path d="M62.6992 16.5602C67.3082 18.5385 70.099 22.5465 71.8477 27.0075C71.1319 21.873 67.3475 18.0583 62.6992 16.5602Z" fill="#96694C"/>
<path d="M71.8906 20.1396C70.8717 18.7363 69.4716 17.6548 67.8563 17.0236C66.2411 16.3924 64.4787 16.2379 62.7783 16.5786C66.2003 16.2555 69.278 17.8743 71.8906 20.1396Z" fill="#5B595D"/>
<path d="M62.292 24.7093C65.4724 28.2793 66.7983 34.8636 67.1879 42.1123C67.1879 42.2029 67.2091 42.2935 67.2181 42.3871C67.801 34.033 65.6627 27.5514 62.292 24.7093Z" fill="#96694C"/>
<path d="M61.1592 31.07C64.1795 33.1842 66.0279 37.5183 67.224 42.387C67.224 42.2813 67.224 42.1756 67.2028 42.0699C66.5988 36.5971 64.1312 32.6133 61.1622 31.07" fill="#96694C"/>
<path d="M61.1592 31.0579C63.6509 33.4047 64.5299 36.7632 64.6416 40.2185C64.9641 38.5189 64.8093 36.7632 64.1946 35.1462C63.5799 33.5291 62.5292 32.1141 61.1592 31.0579Z" fill="#96694C"/>
<path d="M60.0029 57.1051C59.9636 57.5219 59.9395 57.9507 59.9395 58.3766C59.9406 58.9321 59.9769 59.4869 60.0482 60.0378" fill="#96694C"/>
<path d="M81.1504 42.0971C81.1034 42.0811 81.0534 42.0761 81.0042 42.0824C80.955 42.0887 80.9079 42.1061 80.8665 42.1333C80.7683 42.1805 80.6909 42.2622 80.649 42.3629C80.5977 42.4927 80.649 42.5894 80.8121 42.6649L81.2682 42.8461C81.3769 42.4293 81.3376 42.1816 81.1504 42.1061" fill="#96694C"/>
<path d="M81.105 40.007C80.3537 41.4622 79.1797 42.6561 77.7374 43.432C75.9433 44.3592 73.9137 44.4619 71.881 43.8699C71.6877 43.8095 71.4944 43.7491 71.2981 43.6796C71.2709 44.3804 71.2649 45.0962 71.2981 45.8301C71.4038 45.8603 71.5095 45.9026 71.6183 45.9298C74.6204 46.7815 77.6136 46.6154 80.2714 45.2381C81.5024 44.5893 82.6031 43.719 83.5183 42.6709L81.105 40.007ZM81.5883 43.2387C81.3924 43.7247 81.0322 44.1266 80.5704 44.3743C80.4818 44.4398 80.38 44.4853 80.2721 44.5077C80.1641 44.5301 80.0526 44.5289 79.9452 44.5042C79.7761 44.4377 79.613 44.1327 79.462 43.5981C79.5742 43.7042 79.704 43.7901 79.8456 43.8518C80.0447 43.9301 80.2651 43.9355 80.4678 43.8669C80.7017 43.7916 80.9106 43.6537 81.0718 43.4682L80.6278 43.293C80.4738 43.2296 80.3681 43.1813 80.3258 43.1511C80.2735 43.123 80.2274 43.0847 80.19 43.0386C80.1527 42.9924 80.1249 42.9393 80.1083 42.8823C80.0645 42.7665 80.0645 42.6387 80.1083 42.5229C80.1982 42.3245 80.3266 42.1459 80.4859 41.9973C80.6592 41.8353 80.8557 41.6999 81.0688 41.5956C81.1232 41.5681 81.1829 41.5526 81.2439 41.55C81.3048 41.5473 81.3656 41.5578 81.4222 41.5805C81.5034 41.6232 81.5732 41.6846 81.6257 41.7598C81.6783 41.8349 81.712 41.9215 81.7242 42.0124C81.8124 42.4248 81.7702 42.8544 81.6034 43.2417" fill="#96694C"/>
<path d="M36.4834 62.5144L37.8335 64.5712C38.8613 63.7771 40.0742 63.2575 41.3582 63.0611C43.0141 62.8099 44.7073 63.0625 46.2178 63.786C46.3628 63.8524 46.5199 63.9279 46.6497 64.0034C46.8396 63.5731 47.0049 63.1325 47.1451 62.6835C47.0666 62.6413 46.991 62.602 46.9095 62.5657C44.6699 61.502 42.1645 61.1288 39.7121 61.4935C38.5919 61.6747 37.5042 62.0186 36.4834 62.5144Z" fill="#96694C"/>
<path d="M49.474 65.5075C52.9564 64.7525 55.717 61.6718 56.0522 57.7695C56.2109 56.1455 55.9069 54.5097 55.1752 53.0512C54.4435 51.5926 53.3141 50.3709 51.9174 49.5271C52.5642 48.9051 53.2726 48.3506 54.0316 47.872C55.564 49.2388 56.7568 50.944 57.5153 52.8522C58.2737 54.7604 58.5771 56.819 58.4012 58.8649C58.2253 60.9108 57.575 62.8875 56.502 64.6382C55.4289 66.3889 53.9627 67.8655 52.2195 68.9507C51.1146 67.9637 50.1826 66.7989 49.4619 65.5045" fill="#96694C"/>
<path d="M83.2861 57.1049H75.4635C75.8737 55.4237 76.7759 53.9031 78.0549 52.7375C78.9286 51.9421 79.9656 51.3473 81.0934 50.9948C80.2641 49.7682 79.2374 48.6874 78.0549 47.7963C76.8723 48.6882 75.8447 49.7688 75.0135 50.9948C73.784 52.8163 73.0311 54.9171 72.8238 57.1049H70.4679C70.2864 55.2771 69.7287 53.5066 68.83 51.9046C67.9314 50.3027 66.7111 48.904 65.2458 47.7963C63.7798 48.904 62.5585 50.3026 61.6583 51.9044C60.7581 53.5062 60.1986 55.2767 60.0146 57.1049L60.06 60.0376H67.7225C67.279 61.5689 66.422 62.9483 65.2458 64.0244C64.3715 64.8183 63.3346 65.412 62.2074 65.7641C63.0357 66.9889 64.0626 68.0668 65.2458 68.9536C66.423 68.0623 67.4437 66.9813 68.2661 65.755C69.4219 64.0448 70.1577 62.0859 70.4136 60.0376H72.857C73.1893 62.6704 74.3095 65.1413 76.0706 67.1263C76.6665 67.7997 77.3282 68.4118 78.0459 68.9536C78.7636 68.4118 79.4253 67.7997 80.0212 67.1263C81.7815 65.1411 82.9006 62.6701 83.2317 60.0376C83.3016 59.4856 83.3379 58.9298 83.3405 58.3734C83.3405 57.9476 83.3163 57.5217 83.277 57.1049M62.3826 57.1049C62.4276 55.9407 62.704 54.7971 63.1956 53.7408C63.6871 52.6845 64.3841 51.7367 65.2458 50.9525C66.105 51.7376 66.7992 52.686 67.2877 53.7423C67.7762 54.7987 68.0492 55.9418 68.0909 57.1049H62.3826ZM78.0459 65.8034C76.4109 64.3072 75.404 62.2468 75.2279 60.0376H80.8638C80.6878 62.2468 79.6808 64.3072 78.0459 65.8034Z" fill="#96694C"/>
<path d="M18.2012 61.1763L19.1314 59.5876C18.8294 60.1252 18.5274 60.6568 18.2012 61.1763L22.2544 62.7016C22.6894 61.6837 23.088 60.6417 23.4625 59.5876C23.7988 58.6211 24.1008 57.6395 24.3686 56.6428C25.3129 53.1753 25.859 49.6115 25.9966 46.0204C26.0207 45.4163 26.0328 44.7881 26.0328 44.169C26.0328 43.7159 26.0328 43.2629 26.0147 42.8159C25.9335 39.9365 25.5908 37.0706 24.9908 34.2533C24.3296 31.1655 23.3592 28.1522 22.0944 25.2588C21.442 25.4582 20.7986 25.6726 20.1644 25.8961C20.6738 26.9713 21.1329 28.0697 21.5416 29.1913C22.994 33.2168 23.736 37.4641 23.7344 41.7437C23.7344 42.0457 23.7344 42.3477 23.7193 42.6497C23.6921 43.7008 23.6256 44.7368 23.5169 45.7667C23.1083 49.5197 22.1231 53.1872 20.5963 56.6398C20.1523 57.6456 19.663 58.6302 19.1314 59.5846" fill="#96694C"/>
<path d="M39.7539 57.1081H36.7064C36.442 54.333 35.3017 51.714 33.4505 49.6298C32.8545 48.9546 32.1917 48.3414 31.4722 47.7995C30.7547 48.3414 30.0939 48.9547 29.5 49.6298C27.6476 51.7132 26.5071 54.3326 26.2441 57.1081C26.2016 57.5306 26.1805 57.955 26.1807 58.3796C26.1818 58.9351 26.2181 59.4899 26.2894 60.0408H33.961C33.8784 60.3126 33.7848 60.5784 33.6801 60.8381C33.1965 62.0546 32.4413 63.1445 31.4722 64.0246C30.6003 64.8201 29.564 65.414 28.4368 65.7643C29.2643 66.9914 30.2901 68.0723 31.4722 68.9627C32.5951 68.1148 33.5776 67.0956 34.3838 65.9424C34.4261 65.876 34.4714 65.8186 34.5137 65.7522L34.5892 65.6404C34.6496 65.5498 34.71 65.4562 34.7674 65.3626C35.7772 63.7448 36.4234 61.9269 36.6611 60.0347H46.4439C46.7671 60.9408 47.1114 61.8258 47.4889 62.6986L51.5422 61.1734L50.6089 59.5847C50.0803 58.6303 49.588 57.6457 49.1441 56.6399C47.7672 53.5218 46.831 50.2273 46.3624 46.8511C46.314 46.4917 46.2687 46.1353 46.2264 45.7729C46.1147 44.7429 46.0452 43.707 46.0211 42.6559C46.0211 42.3539 46.0211 42.0518 46.0211 41.7498C46.0151 37.4699 46.7572 33.2218 48.2138 29.1974C48.6165 28.0759 49.0746 26.9775 49.588 25.9023C48.9538 25.6788 48.3104 25.4643 47.6611 25.265C46.3926 28.157 45.4221 31.1707 44.7646 34.2594C44.1631 37.0765 43.8204 39.9426 43.7407 42.822C43.7407 43.272 43.7196 43.7281 43.7196 44.1751C43.7196 44.7943 43.7196 45.4165 43.7558 46.0266C43.7709 46.4403 43.7951 46.8481 43.8192 47.2558C44.0238 50.4317 44.549 53.5788 45.3868 56.649C45.4291 56.803 45.4744 56.951 45.5167 57.1111H42.1943C42.0825 53.6423 40.6764 50.341 38.2528 47.8569C37.4205 48.3022 36.6353 48.8304 35.9091 49.4335C37.1382 50.2924 38.1337 51.4443 38.8055 52.7849C39.4774 54.1254 39.8044 55.6123 39.7569 57.1111L39.7539 57.1081ZM33.9942 57.1081H28.6332C28.6741 55.9454 28.9462 54.8025 29.4337 53.7462C29.9211 52.6899 30.6141 51.7413 31.4722 50.9557C32.977 52.3287 33.9545 54.1845 34.2358 56.202C34.2741 56.498 34.3013 56.8 34.3174 57.1081H33.9942Z" fill="#96694C"/>
<path d="M53.5449 83.7198C53.0344 83.7198 52.521 83.7198 52.0075 83.7198C50.2165 83.7997 48.4403 84.0824 46.7129 84.5624C46.4109 84.644 46.1089 84.7346 45.828 84.8282C45.6105 84.8947 45.3991 84.9672 45.1877 85.0397C43.8267 85.5124 42.5123 86.1099 41.2613 86.8247C41.0529 86.9424 40.8475 87.0693 40.6572 87.1961C40.8106 87.49 40.9468 87.7925 41.065 88.1022C41.1193 88.066 41.1737 88.0298 41.2311 87.9965C42.4225 87.2877 43.6899 86.7152 45.0095 86.2901L45.4474 86.1572C45.9488 86.0122 46.4532 85.8853 46.9576 85.7826C48.8018 85.4092 50.6926 85.3227 52.5633 85.5259C53.1069 85.5833 53.6506 85.6679 54.1852 85.7736L55.0913 85.9759L55.203 83.8194C54.6533 83.7651 54.1006 83.7349 53.5419 83.7198" fill="#96694C"/>
<path d="M0.713867 77.8455H2.71029V88.9542H8.6754V89.7183H0.713867V77.8455Z" fill="#919396"/>
<path d="M12.3392 77.8455H10.3428V89.7183H12.3392V77.8455Z" fill="#919396"/>
<path d="M15.8365 77.8455L19.3673 86.8702L22.4873 78.7274L25.7129 86.9095L29.1652 77.8455H30.1468L25.574 89.818H24.973L22.0433 82.4183L19.2253 89.818H18.5458L13.8311 77.8455H15.8365Z" fill="#919396"/>
<path d="M35.752 77.5736L41.3366 89.7182H39.313L37.5008 85.7556H32.4116L30.539 89.7182H29.5332L35.2718 77.5736H35.752ZM32.7649 84.9854H37.1353L34.9788 80.2919L32.7649 84.9854Z" fill="#919396"/>
<path d="M58.8034 81.2403C58.4524 80.4825 57.9364 79.8128 57.2932 79.2801C56.6544 78.752 55.9034 78.377 55.0975 78.1837C54.0656 77.9404 53.0073 77.8268 51.9473 77.8455H47.9967V82.1645C48.6612 82.1433 49.3287 82.1192 49.9931 82.092V78.7274H52.1074C52.7734 78.7202 53.4344 78.8444 54.0524 79.0928C54.6294 79.3253 55.1519 79.6749 55.5868 80.1197C56.0217 80.5751 56.3625 81.112 56.5895 81.6994C56.8349 82.3413 56.9579 83.0236 56.9519 83.7109C56.9655 84.4655 56.8354 85.2158 56.5684 85.9217C56.3377 86.5248 55.9839 87.0731 55.5294 87.5316C55.0915 87.9667 54.5651 88.3026 53.986 88.5162C53.3777 88.7392 52.7341 88.8507 52.0862 88.8454H49.972V85.4476C49.3075 85.4747 48.6401 85.5019 47.9756 85.5231V89.7183H52.4094C53.4081 89.7353 54.4019 89.5758 55.3451 89.2471C56.1445 88.9677 56.8784 88.5278 57.5016 87.9544C58.0774 87.4146 58.5306 86.7575 58.8306 86.0275C59.1377 85.2803 59.2928 84.4794 59.2866 83.6716C59.2935 82.8394 59.1214 82.0154 58.7822 81.2554" fill="#919396"/>
<path d="M66.0068 77.5736L71.5883 89.7182H69.5617L67.7495 85.7556H62.6694L60.7938 89.7182H59.791L65.5296 77.5736H66.0068ZM63.0197 84.9854H67.3901L65.2457 80.2919L63.0197 84.9854Z" fill="#919396"/>
<path d="M81.3405 77.8455V78.6066H77.0366V89.7183H75.0432V78.6066H70.7393V77.8455H81.3405Z" fill="#919396"/>
<path d="M91.4292 77.8455V78.6066H85.1711V82.8592H89.3543V83.6203H85.1711V88.9542H91.4292V89.7183H83.1777V77.8455H91.4292Z" fill="#919396"/>
<path d="M96.8954 89.238C97.1895 89.2369 97.482 89.1962 97.7653 89.1172C98.0402 89.0425 98.3005 88.922 98.5354 88.7608C98.7531 88.6096 98.9363 88.414 99.0731 88.187C99.2127 87.9448 99.2837 87.6691 99.2784 87.3896C99.2834 87.0466 99.1855 86.71 98.9975 86.4231C98.796 86.1241 98.5471 85.8599 98.2606 85.6409C97.9325 85.3882 97.5828 85.1648 97.2156 84.9734C96.8269 84.772 96.4242 84.5636 96.0074 84.3482C95.5906 84.1327 95.1879 83.9112 94.7993 83.6837C94.4237 83.4673 94.0733 83.21 93.7543 82.9165C93.4632 82.6411 93.2193 82.3197 93.0324 81.9652C92.8387 81.5925 92.7421 81.1769 92.7516 80.757C92.7466 80.3228 92.8342 79.8924 93.0083 79.4945C93.1796 79.1041 93.4366 78.7572 93.7603 78.4797C94.1153 78.1793 94.5258 77.9515 94.9685 77.8092C95.5037 77.6407 96.0625 77.5591 96.6236 77.5676C97.7471 77.5676 98.6351 77.8032 99.2875 78.2743C99.9731 78.7867 100.471 79.5106 100.704 80.3342L99.6771 80.7933C99.564 80.4422 99.4099 80.1056 99.218 79.7905C99.0435 79.4968 98.8197 79.2353 98.5566 79.0173C98.2936 78.8007 97.9938 78.6329 97.6716 78.522C97.3057 78.3998 96.9217 78.3405 96.536 78.3468C96.2023 78.3403 95.8701 78.3924 95.5544 78.5009C95.2965 78.5912 95.0585 78.7307 94.8537 78.9116C94.6744 79.0727 94.5305 79.2691 94.4308 79.4885C94.3397 79.6939 94.2923 79.9161 94.2919 80.1409C94.2897 80.4502 94.3895 80.7517 94.5758 80.9987C94.791 81.2805 95.0489 81.5271 95.34 81.7296C95.6825 81.9766 96.0418 82.1997 96.4152 82.3971L97.6445 83.0494C98.0643 83.2699 98.472 83.4995 98.8737 83.7411C99.2571 83.9693 99.6182 84.2333 99.952 84.5294C100.255 84.796 100.512 85.1102 100.713 85.4596C100.905 85.8047 101.004 86.1941 101 86.5892C101.003 87.0443 100.91 87.495 100.728 87.9121C100.546 88.3288 100.272 88.6993 99.9278 88.9964C99.5344 89.3243 99.081 89.5725 98.5928 89.7273C97.9936 89.9183 97.3672 90.0101 96.7384 89.9992C96.2217 90.0057 95.7065 89.9416 95.2071 89.8089C94.7839 89.6935 94.3828 89.5088 94.0201 89.2622C93.6789 89.0242 93.3815 88.7289 93.1412 88.3893C92.8888 88.025 92.6856 87.629 92.5371 87.2114L93.6093 86.7704C93.8166 87.4919 94.2508 88.1274 94.8477 88.5826C95.4378 89.0186 96.1558 89.247 96.8894 89.232" fill="#919396"/>
</svg>
