<svg width="145" height="130" viewBox="0 0 145 130" fill="none" xmlns="http://www.w3.org/2000/svg">
<path d="M34.0918 31.1026C39.6451 25.7192 50.033 22.7705 59.3538 24.1774C62.0669 24.5333 64.6142 25.6835 66.6754 27.4832C65.0377 24.6216 62.5638 23.4674 59.8503 23.0144C49.2839 21.1198 38.0728 25.4797 32.6807 32.0652C41.7226 29.8718 51.1063 29.4678 60.3033 30.8761C53.1211 27.9667 44.3534 28.1888 34.1049 31.1026" fill="white"/>
<path d="M38.5166 28.9072C43.5777 27.4568 56.8097 25.2529 67.4677 29.0509C57.9901 24.2599 47.8461 24.8696 38.5166 28.9072Z" fill="white"/>
<path d="M90.047 42.6449C90.0478 42.6362 90.0478 42.6274 90.047 42.6187C86.6497 36.2553 80.6217 33.0148 74.8027 33.1804C80.8351 33.6595 85.9006 37.623 90.047 42.6492" fill="white"/>
<path d="M71.0348 24.5302V24.4997C71.087 13.1188 65.1505 4.12902 56.9316 0C64.9545 5.1787 69.0138 14.4603 71.0348 24.5433" fill="white"/>
<path d="M71.4492 4.46387C74.4371 11.0581 73.5181 18.0356 71.0137 24.4992C75.2429 18.3231 74.9336 10.5964 71.4492 4.46387Z" fill="white"/>
<path d="M77.7603 17.222C78.0459 14.7382 77.6129 12.2247 76.5128 9.97967C75.4127 7.73463 73.6916 5.85234 71.5537 4.55615C75.4737 7.5571 77.1767 12.2523 77.7603 17.222Z" fill="white"/>
<path d="M81.2964 60.8817C80.6082 47.9458 76.4182 38.3855 71.1611 34.6528C76.3616 39.605 79.4366 49.6619 81.2964 60.8817Z" fill="white"/>
<path d="M80.125 38.3721C83.1303 43.7293 82.8603 52.1834 81.2618 61.1165C84.3673 51.2949 83.5179 42.8234 80.125 38.3721Z" fill="white"/>
<path d="M60.4811 37.1959C56.3103 39.612 53.1011 43.3935 51.3955 47.9017V47.9409C54.758 41.0941 61.5743 36.9128 69.1834 34.2646C66.1121 34.6484 63.1495 35.6468 60.4724 37.2003" fill="white"/>
<path d="M41.8438 59.0044C43.1852 49.7403 48.4511 42.6582 55.1629 37.1528C55.8543 36.4496 56.6245 35.8285 57.4583 35.3018C47.8369 39.3219 42.3708 48.8387 41.8438 59.0044Z" fill="white"/>
<path d="M57.4194 35.3018C56.6398 35.8636 55.8732 36.4385 55.124 37.044C53.7414 38.4652 52.6895 40.1742 52.0435 42.0489C51.3975 43.9236 51.1734 45.9178 51.387 47.8892C51.387 47.8892 51.387 47.8892 51.387 47.8587C51.387 42.8542 53.9655 38.7121 57.4063 35.3061" fill="white"/>
<path d="M107.377 13.2582C92.856 10.7582 79.3408 17.4482 74.4365 26.6645C81.9498 18.4892 94.2672 14.7522 107.377 13.2582Z" fill="white"/>
<path d="M65.0983 21.7688C60.4684 11.0412 49.6885 5.65341 40.9209 7.1125C50.1067 7.86601 58.2253 13.9898 65.0983 21.7688Z" fill="white"/>
<path d="M76.0176 30.3758C85.4255 28.786 94.7027 32.8976 102.983 38.9823C95.356 30.5151 84.8723 27.867 76.0176 30.3758Z" fill="white"/>
<path d="M89.7686 23.8813C96.4151 26.7342 100.44 32.514 102.961 38.9471C101.929 31.5427 96.4717 26.0417 89.7686 23.8813Z" fill="white"/>
<path d="M103.021 29.0426C101.552 27.0189 99.533 25.4594 97.2037 24.5491C94.8745 23.6389 92.3329 23.4162 89.8809 23.9075C94.8157 23.4414 99.2539 25.776 103.021 29.0426Z" fill="white"/>
<path d="M89.1797 35.6328C93.766 40.781 95.6781 50.276 96.24 60.7293C96.24 60.8599 96.2705 60.9906 96.2835 61.1256C97.1242 49.0783 94.0404 39.7313 89.1797 35.6328Z" fill="white"/>
<path d="M87.5469 44.8052C91.9024 47.854 94.568 54.1042 96.2927 61.1253C96.2927 60.9728 96.2927 60.8204 96.2623 60.6679C95.3912 52.7757 91.8327 47.0308 87.5512 44.8052" fill="white"/>
<path d="M87.5469 44.7876C91.1402 48.1718 92.4076 53.0151 92.5688 57.9979C93.0338 55.5469 92.8107 53.0151 91.9242 50.6832C91.0378 48.3514 89.5226 46.3107 87.5469 44.7876Z" fill="white"/>
<path d="M85.8786 82.3496C85.822 82.9507 85.7871 83.5691 85.7871 84.1833C85.7887 84.9843 85.8411 85.7844 85.9439 86.5788" fill="white"/>
<path d="M116.376 60.7071C116.308 60.6841 116.236 60.6769 116.165 60.6859C116.094 60.695 116.026 60.7201 115.966 60.7593C115.825 60.8275 115.713 60.9453 115.653 61.0904C115.579 61.2777 115.653 61.417 115.888 61.5259L116.545 61.7872C116.702 61.1862 116.646 60.829 116.376 60.7201" fill="white"/>
<path d="M116.31 57.6929C115.226 59.7914 113.533 61.5132 111.453 62.632C108.866 63.9692 105.939 64.1172 103.008 63.2636C102.729 63.1764 102.451 63.0893 102.168 62.9892C102.128 63.9996 102.12 65.0319 102.168 66.0903C102.32 66.1338 102.472 66.1948 102.629 66.234C106.959 67.4623 111.275 67.2227 115.108 65.2366C116.883 64.301 118.47 63.0459 119.79 61.5344L116.31 57.6929ZM117.007 62.3533C116.724 63.0541 116.205 63.6337 115.539 63.9909C115.411 64.0853 115.264 64.1509 115.109 64.1833C114.953 64.2156 114.792 64.2139 114.637 64.1782C114.393 64.0824 114.158 63.6425 113.94 62.8716C114.102 63.0246 114.289 63.1484 114.494 63.2374C114.781 63.3504 115.099 63.3581 115.391 63.2592C115.728 63.1506 116.029 62.9518 116.262 62.6843L115.622 62.4317C115.4 62.3402 115.247 62.2705 115.186 62.227C115.111 62.1864 115.044 62.1312 114.99 62.0647C114.937 61.9981 114.896 61.9215 114.873 61.8393C114.809 61.6723 114.809 61.488 114.873 61.321C115.002 61.0349 115.187 60.7773 115.417 60.5631C115.667 60.3295 115.95 60.1342 116.258 59.9839C116.336 59.9442 116.422 59.9218 116.51 59.918C116.598 59.9142 116.686 59.9293 116.767 59.9621C116.884 60.0236 116.985 60.1122 117.061 60.2205C117.136 60.3289 117.185 60.4539 117.203 60.5849C117.33 61.1796 117.269 61.7991 117.029 62.3576" fill="white"/>
<path d="M51.9619 90.1506L53.9088 93.1167C55.3911 91.9716 57.1402 91.2222 58.9917 90.939C61.3797 90.5768 63.8214 90.941 65.9997 91.9843C66.2088 92.0801 66.4353 92.189 66.6226 92.2979C66.8963 91.6774 67.1348 91.0419 67.3369 90.3945C67.2236 90.3336 67.1147 90.2769 66.9971 90.2247C63.7675 88.6907 60.1545 88.1524 56.618 88.6785C55.0025 88.9397 53.4339 89.4357 51.9619 90.1506Z" fill="white"/>
<path d="M70.6952 94.467C75.7171 93.3781 79.698 88.9355 80.1815 83.3082C80.4103 80.9662 79.9719 78.6072 78.9168 76.5039C77.8616 74.4006 76.2329 72.6388 74.2188 71.422C75.1515 70.5251 76.173 69.7253 77.2676 69.0352C79.4774 71.0062 81.1975 73.4652 82.2913 76.217C83.385 78.9687 83.8225 81.9375 83.5688 84.8878C83.3152 87.838 82.3775 90.6886 80.8301 93.2133C79.2826 95.738 77.1681 97.8673 74.6543 99.4323C73.061 98.0089 71.717 96.3293 70.6777 94.4626" fill="white"/>
<path d="M119.455 82.35H108.174C108.765 79.9256 110.067 77.7328 111.911 76.0519C113.171 74.9048 114.666 74.047 116.293 73.5388C115.097 71.7699 113.616 70.2113 111.911 68.9263C110.206 70.2124 108.724 71.7708 107.525 73.5388C105.752 76.1654 104.666 79.195 104.367 82.35H100.97C100.708 79.7141 99.9039 77.1609 98.608 74.8508C97.312 72.5407 95.5522 70.5236 93.4393 68.9263C91.3252 70.5237 89.5639 72.5405 88.2658 74.8505C86.9677 77.1604 86.1607 79.7136 85.8955 82.35L85.9609 86.5791H97.0108C96.3712 88.7874 95.1355 90.7766 93.4393 92.3284C92.1785 93.4733 90.6832 94.3295 89.0576 94.8372C90.2521 96.6034 91.733 98.1579 93.4393 99.4366C95.1369 98.1513 96.6088 96.5926 97.7948 94.8241C99.4615 92.3578 100.523 89.5329 100.892 86.5791H104.415C104.894 90.3758 106.51 93.939 109.049 96.8015C109.909 97.7727 110.863 98.6554 111.898 99.4366C112.933 98.6554 113.887 97.7727 114.746 96.8015C117.285 93.9387 118.899 90.3754 119.376 86.5791C119.477 85.7831 119.529 84.9817 119.533 84.1793C119.533 83.5651 119.498 82.951 119.442 82.35M89.3102 82.35C89.3752 80.6711 89.7737 79.0219 90.4826 77.4987C91.1915 75.9754 92.1966 74.6086 93.4393 73.4778C94.6783 74.6099 95.6793 75.9775 96.3837 77.5009C97.0882 79.0242 97.482 80.6727 97.5421 82.35H89.3102ZM111.898 94.8938C109.54 92.7362 108.088 89.765 107.834 86.5791H115.962C115.708 89.765 114.256 92.7362 111.898 94.8938Z" fill="white"/>
<path d="M25.5986 88.2205L26.9401 85.9295C26.5046 86.7048 26.069 87.4714 25.5986 88.2205L31.4437 90.4201C32.0709 88.9522 32.6459 87.4496 33.1859 85.9295C33.6708 84.5358 34.1064 83.1202 34.4926 81.6829C35.8542 76.6825 36.6419 71.5433 36.8402 66.3646C36.875 65.4935 36.8925 64.5875 36.8925 63.6947C36.8925 63.0413 36.8925 62.388 36.8663 61.7434C36.7493 57.5912 36.2551 53.4582 35.3898 49.3955C34.4363 44.9427 33.037 40.5972 31.2129 36.4248C30.2721 36.7123 29.3444 37.0215 28.4297 37.3438C29.1643 38.8944 29.8264 40.4783 30.4158 42.0957C32.5103 47.9008 33.5803 54.0257 33.5779 60.1972C33.5779 60.6327 33.5779 61.0683 33.5562 61.5038C33.517 63.0196 33.4211 64.5135 33.2643 65.9987C32.675 71.4108 31.2544 76.6996 29.0526 81.6785C28.4123 83.1289 27.7067 84.5488 26.9401 85.9252" fill="white"/>
<path d="M56.6791 82.3537H52.2844C51.903 78.3519 50.2587 74.5751 47.5892 71.5695C46.7296 70.5958 45.7738 69.7115 44.7363 68.93C43.7016 69.7116 42.7487 70.5959 41.8922 71.5695C39.2208 74.5739 37.5762 78.3514 37.1969 82.3537C37.1357 82.963 37.1052 83.575 37.1055 84.1874C37.1071 84.9884 37.1595 85.7885 37.2623 86.5829H48.3253C48.2062 86.9749 48.0712 87.3582 47.9202 87.7328C47.2228 89.487 46.1338 91.0587 44.7363 92.3278C43.4789 93.475 41.9845 94.3315 40.359 94.8366C41.5522 96.6062 43.0315 98.165 44.7363 99.4491C46.3555 98.2263 47.7724 96.7565 48.935 95.0936C48.996 94.9977 49.0613 94.915 49.1223 94.8192L49.2312 94.658C49.3183 94.5274 49.4054 94.3923 49.4882 94.2573C50.9444 91.9244 51.8762 89.3029 52.2191 86.5742H66.3266C66.7926 87.8809 67.2891 89.157 67.8336 90.4158L73.6787 88.2162L72.3328 85.9252C71.5706 84.5489 70.8607 83.129 70.2204 81.6786C68.2349 77.1821 66.8848 72.4311 66.209 67.5624C66.1393 67.0441 66.074 66.5302 66.013 66.0075C65.8518 64.5223 65.7517 63.0283 65.7168 61.5126C65.7168 61.0771 65.7168 60.6415 65.7168 60.206C65.7083 54.034 66.7784 47.908 68.8789 42.1045C69.4596 40.4871 70.1202 38.9032 70.8607 37.3526C69.946 37.0303 69.0183 36.7211 68.0819 36.4336C66.2526 40.6041 64.8531 44.9501 63.9049 49.4043C63.0376 53.4667 62.5433 57.5998 62.4284 61.7522C62.4284 62.4011 62.3979 63.0588 62.3979 63.7034C62.3979 64.5963 62.3979 65.4935 62.4502 66.3734C62.472 66.9701 62.5068 67.5581 62.5416 68.1461C62.8366 72.7259 63.5939 77.2642 64.8022 81.6917C64.8631 81.9138 64.9285 82.1272 64.9894 82.3581H60.1984C60.0371 77.3559 58.0094 72.5952 54.5144 69.0128C53.3142 69.655 52.1818 70.4167 51.1346 71.2864C52.907 72.5251 54.3426 74.1862 55.3115 76.1193C56.2803 78.0525 56.7519 80.1968 56.6835 82.3581L56.6791 82.3537ZM48.3732 82.3537H40.6421C40.7012 80.6771 41.0936 79.029 41.7966 77.5057C42.4995 75.9824 43.4989 74.6144 44.7363 73.4816C46.9063 75.4615 48.316 78.1377 48.7216 81.0471C48.7768 81.4739 48.816 81.9095 48.8392 82.3537H48.3732Z" fill="white"/>
<path d="M76.5664 120.73C75.8303 120.73 75.0899 120.73 74.3494 120.73C71.7666 120.846 69.2052 121.253 66.7142 121.946C66.2787 122.063 65.8431 122.194 65.4381 122.329C65.1245 122.425 64.8196 122.529 64.5147 122.634C62.552 123.315 60.6566 124.177 58.8525 125.208C58.552 125.378 58.2558 125.561 57.9814 125.744C58.2027 126.167 58.399 126.604 58.5694 127.05C58.6478 126.998 58.7262 126.946 58.809 126.898C60.5271 125.876 62.3549 125.05 64.2577 124.437L64.8893 124.245C65.6123 124.036 66.3397 123.853 67.067 123.705C69.7266 123.167 72.4533 123.042 75.1509 123.335C75.9349 123.418 76.7188 123.54 77.4898 123.692L78.7964 123.984L78.9576 120.874C78.1649 120.796 77.3678 120.752 76.562 120.73" fill="white"/>
<path d="M0.379883 112.259H3.25888V128.279H11.861V129.381H0.379883V112.259Z" fill="white"/>
<path d="M17.1446 112.259H14.2656V129.381H17.1446V112.259Z" fill="white"/>
<path d="M22.188 112.259L27.2796 125.274L31.7788 113.531L36.4305 125.33L41.4088 112.259H42.8244L36.2301 129.525H35.3634L31.1385 118.854L27.0748 129.525H26.0949L19.2959 112.259H22.188Z" fill="white"/>
<path d="M50.9074 111.867L58.9608 129.38H56.0426L53.4293 123.666H46.0903L43.3898 129.38H41.9395L50.2149 111.867H50.9074ZM46.5998 122.555H52.9023L49.7924 115.787L46.5998 122.555Z" fill="white"/>
<path d="M84.1496 117.155C83.6435 116.062 82.8994 115.096 81.9719 114.328C81.0507 113.567 79.9677 113.026 78.8055 112.747C77.3174 112.396 75.7913 112.232 74.2626 112.259H68.5656V118.488C69.5239 118.457 70.4864 118.422 71.4446 118.383V113.531H74.4935C75.454 113.521 76.4072 113.7 77.2984 114.058C78.1305 114.393 78.8839 114.897 79.511 115.539C80.1383 116.196 80.6297 116.97 80.9571 117.817C81.311 118.743 81.4883 119.727 81.4797 120.718C81.4993 121.806 81.3116 122.888 80.9266 123.906C80.594 124.775 80.0837 125.566 79.4283 126.227C78.7969 126.855 78.0378 127.339 77.2026 127.647C76.3253 127.969 75.3973 128.13 74.463 128.122H71.4141V123.222C70.4559 123.261 69.4934 123.3 68.5352 123.331V129.381H74.929C76.3692 129.405 77.8024 129.175 79.1626 128.701C80.3154 128.298 81.3737 127.664 82.2724 126.837C83.1027 126.059 83.7562 125.111 84.1889 124.058C84.6318 122.981 84.8554 121.826 84.8465 120.661C84.8564 119.461 84.6083 118.273 84.1192 117.177" fill="white"/>
<path d="M94.5369 111.867L102.586 129.38H99.6633L97.05 123.666H89.724L87.0193 129.38H85.5732L93.8487 111.867H94.5369ZM90.2293 122.555H96.5317L93.4393 115.787L90.2293 122.555Z" fill="white"/>
<path d="M116.65 112.259V113.357H110.444V129.381H107.569V113.357H101.362V112.259H116.65Z" fill="white"/>
<path d="M131.198 112.259V113.357H122.173V119.489H128.206V120.587H122.173V128.279H131.198V129.381H119.299V112.259H131.198Z" fill="white"/>
<path d="M139.081 128.687C139.505 128.686 139.927 128.627 140.335 128.513C140.732 128.405 141.107 128.232 141.446 127.999C141.76 127.781 142.024 127.499 142.221 127.172C142.423 126.823 142.525 126.425 142.517 126.022C142.524 125.527 142.383 125.042 142.112 124.628C141.822 124.197 141.463 123.816 141.05 123.5C140.576 123.136 140.072 122.814 139.543 122.537C138.982 122.247 138.401 121.947 137.8 121.636C137.199 121.325 136.619 121.006 136.058 120.678C135.517 120.366 135.011 119.995 134.551 119.571C134.131 119.174 133.78 118.711 133.51 118.199C133.231 117.662 133.092 117.063 133.105 116.457C133.098 115.831 133.224 115.21 133.475 114.637C133.722 114.074 134.093 113.573 134.56 113.173C135.072 112.74 135.664 112.411 136.302 112.206C137.074 111.963 137.88 111.846 138.689 111.858C140.309 111.858 141.59 112.198 142.53 112.877C143.519 113.616 144.237 114.66 144.573 115.847L143.092 116.509C142.929 116.003 142.707 115.518 142.43 115.063C142.179 114.64 141.856 114.263 141.476 113.948C141.097 113.636 140.665 113.394 140.2 113.234C139.673 113.058 139.119 112.972 138.563 112.982C138.081 112.972 137.602 113.047 137.147 113.204C136.775 113.334 136.432 113.535 136.137 113.796C135.878 114.028 135.67 114.311 135.527 114.628C135.395 114.924 135.327 115.245 135.326 115.569C135.323 116.015 135.467 116.45 135.736 116.806C136.046 117.212 136.418 117.568 136.838 117.86C137.332 118.216 137.85 118.538 138.388 118.822L140.161 119.763C140.766 120.081 141.354 120.412 141.934 120.76C142.487 121.09 143.007 121.47 143.489 121.897C143.925 122.282 144.296 122.735 144.586 123.239C144.864 123.736 145.006 124.298 145 124.868C145.004 125.524 144.87 126.174 144.608 126.775C144.345 127.376 143.951 127.911 143.454 128.339C142.887 128.812 142.233 129.17 141.529 129.393C140.665 129.668 139.761 129.801 138.854 129.785C138.109 129.794 137.366 129.702 136.646 129.511C136.036 129.344 135.458 129.078 134.934 128.722C134.442 128.379 134.014 127.953 133.667 127.464C133.303 126.938 133.01 126.367 132.796 125.765L134.342 125.129C134.641 126.169 135.267 127.086 136.128 127.742C136.979 128.371 138.014 128.7 139.072 128.679" fill="white"/>
</svg>
